<svg id="Layer_0_Image" data-name="Layer 0 Image" xmlns="http://www.w3.org/2000/svg" viewBox="0 0 58.76 57.93"><title>axe</title><path d="M81.34,54.3a6.81,6.81,0,0,1-.87,1.85,24.86,24.86,0,0,1-4.3,4,60.13,60.13,0,0,1-6.88,3.27c-1.14.52-1.66,0-2-1.11a65,65,0,0,0-2.22-6.18,50,50,0,0,0-2.69-4.69C61,52.71,59.8,53.8,58.69,55,51.33,62.67,44.53,70.8,39.27,80.14c-2,3.56-4.63,4.22-8,1.84a48.85,48.85,0,0,1-6-5.49,1.88,1.88,0,0,1,.15-1.67A29.31,29.31,0,0,1,34.54,66c1.91-1.24,3.82-2.49,5.78-3.65,2.73-1.62,4.42-4.14,5.9-6.79,2.25-4,4.53-8,8.4-10.72-1.28-1.88-1.17-2.7.53-4.21s3.08-2.79,4.67-4.13a1.33,1.33,0,0,0,.42-1.86c-1.54-3-3.3-5.74-6.31-7.5A1.44,1.44,0,0,1,53.41,26a1.29,1.29,0,0,1,1-.56,13.23,13.23,0,0,1,10.26,4.11c2.26,2.24,4.17,4.83,6.2,7.29,3.12,3.78,6.7,6.87,11.68,7.87A1.55,1.55,0,0,1,84,46.55,18.73,18.73,0,0,1,81.85,54,0.94,0.94,0,0,1,81.34,54.3Zm-3.17-9c-5.24-2.4-8.42-7-11.84-11.35a31.11,31.11,0,0,0-5-4.81,19.17,19.17,0,0,0-3.69-1.89l-0.19.33a8.58,8.58,0,0,1,.76.89,47.49,47.49,0,0,1,3.4,5.45c1,2.22.67,3-1.18,4.65-0.75.65-1.5,1.32-2.24,2L55.53,43c5.52,3.71,9.8,8.26,12.15,14.41C72.32,55.41,76.53,50.57,78.16,45.25ZM27.28,75.8c1.8,1.51,3.43,3,5.24,4.34,2.14,1.52,3.34,1.16,4.7-1.06a100.93,100.93,0,0,1,11.2-15.67c3-3.3,5.92-6.68,9-10a48.51,48.51,0,0,1,3.79-3.33l-5-4.57a5.86,5.86,0,0,0-.66.43,6.47,6.47,0,0,0-1,1c-2.23,3.25-4.58,6.44-6.62,9.8-1.81,3-3.75,5.71-6.8,7.55-2.6,1.57-5.14,3.24-7.62,5A22.83,22.83,0,0,0,27.28,75.8ZM68.65,61.26c7.09-1.45,12.92-7.67,13.63-14.66l-3.05-.83a10.82,10.82,0,0,1-3,7,28.94,28.94,0,0,1-6.7,5.64C67.94,59.29,68,59.38,68.65,61.26Z" transform="translate(-25.19 -25.45)"/></svg>