<?xml version="1.0" encoding="utf-8"?>
<!-- Generator: Adobe Illustrator 19.2.1, SVG Export Plug-In . SVG Version: 6.00 Build 0)  -->
<svg version="1.1" id="Layer_1" xmlns="http://www.w3.org/2000/svg" xmlns:xlink="http://www.w3.org/1999/xlink" x="0px" y="0px"
	 viewBox="0 0 85 85" style="enable-background:new 0 0 85 85;" xml:space="preserve">
<style type="text/css">
	.st0{fill:#212121;}
</style>
<g>
	<path class="st0" d="M44.3,84.1V53.6h7.8l-5.2-8.9h4.3L46,36.6h3.4l-6.9-11.9l-6.9,11.7H39l-5.2,8.2h4.3l-5.2,8.9h7.8v30.7l-1-0.1
		C17.9,82.6,0.9,64.4,0.9,42.5c0-23,18.7-41.6,41.6-41.6c23,0,41.6,18.7,41.6,41.6C84.1,64.3,67,82.6,45.3,84L44.3,84.1z M42.5,2.8
		C20.6,2.8,2.7,20.6,2.7,42.5c0,20.5,15.8,37.7,36.1,39.6V55.4h-9.2l5.2-8.9h-4.4l5.2-8.2h-3.3L42.5,21l10.2,17.5h-3.3l5.2,8.2h-4.4
		l5.2,8.9h-9.2v26.6c20.3-2,36.1-19.2,36.1-39.7C82.3,20.6,64.4,2.8,42.5,2.8z"/>
</g>
</svg>
