<?xml version="1.0" encoding="utf-8"?>
<!-- Generator: Adobe Illustrator 19.2.1, SVG Export Plug-In . SVG Version: 6.00 Build 0)  -->
<svg version="1.1" id="Layer_1" xmlns="http://www.w3.org/2000/svg" xmlns:xlink="http://www.w3.org/1999/xlink" x="0px" y="0px"
	 viewBox="0 0 60 35" style="enable-background:new 0 0 60 35;" xml:space="preserve">
<style type="text/css">
	.st0{fill:#FFF;}
</style>
<g>
	<path class="st0" d="M0.3,0.4H4c1.2,0,2.1,0.1,2.9,0.4C7.7,1.1,8.3,1.5,8.7,2c0.4,0.5,0.7,1.1,0.9,1.9c0.2,0.7,0.3,1.5,0.3,2.4v7.3
		c0,0.9-0.1,1.7-0.3,2.4c-0.2,0.7-0.5,1.3-1,1.8c-0.5,0.5-1.1,0.9-1.8,1.2c-0.8,0.3-1.7,0.4-2.9,0.4H1.2v15.2H0.3V0.4z M1.2,18.7
		h2.7c2,0,3.3-0.5,4-1.4C8.7,16.4,9,15.2,9,13.6V6.3c0-0.7-0.1-1.4-0.2-2.1C8.6,3.6,8.4,3,8,2.6C7.6,2.1,7.1,1.8,6.5,1.5
		C5.9,1.3,5,1.2,4,1.2H1.2V18.7z"/>
	<path class="st0" d="M19.6,0.4h0.9v34.2h-0.9V0.4z"/>
	<path class="st0" d="M31.1,34.6h-0.9V0.4h1.2l9,32v-32h0.9v34.2h-1.2l-9-32V34.6z"/>
	<path class="st0" d="M51.8,33.8h7.9v0.8h-8.8V0.4h8.8v0.8h-7.9V17h6.7v0.8h-6.7V33.8z"/>
</g>
</svg>
